<?xml version="1.0" encoding="UTF-8" standalone="no"?>
<svg
   xmlns:dc="http://purl.org/dc/elements/1.1/"
   xmlns:cc="http://creativecommons.org/ns#"
   xmlns:rdf="http://www.w3.org/1999/02/22-rdf-syntax-ns#"
   xmlns:svg="http://www.w3.org/2000/svg"
   xmlns="http://www.w3.org/2000/svg"
   id="svg5510"
   version="1.1"
   viewBox="0 0 144.1111 114.09832"
   height="114.09832mm"
   width="144.1111mm">
  <defs
     id="defs5504">
    <filter
       height="1.2090285"
       y="-0.10451427"
       width="1.158592"
       x="-0.079296023"
       id="filter5426"
       style="color-interpolation-filters:sRGB">
      <feGaussianBlur
         id="feGaussianBlur5428"
         stdDeviation="4.1096712" />
    </filter>
  </defs>
  <metadata
     id="metadata5507">
    <rdf:RDF>
      <cc:Work
         rdf:about="">
        <dc:format>image/svg+xml</dc:format>
        <dc:type
           rdf:resource="http://purl.org/dc/dcmitype/StillImage" />
        <dc:title></dc:title>
      </cc:Work>
    </rdf:RDF>
  </metadata>
  <g
     transform="translate(-28.168645,-92.347937)"
     id="layer1">
    <g
       transform="translate(-59.120418,74.036288)"
       style="fill:#808080;fill-opacity:0.65882353"
       id="g5403">
      <path
         style="opacity:1;fill:#808080;fill-opacity:0.65882353;stroke:none;stroke-width:1.32291663;stroke-linejoin:round;stroke-miterlimit:4;stroke-dasharray:none;stroke-opacity:0.75294118;filter:url(#filter5426)"
         d="m 220.81918,82.682833 c 6.12549,31.255577 -28.01696,39.863927 -61.92197,39.863927 -33.90501,0 -67.683611,-8.75354 -60.858931,-39.863927 6.112471,-27.86377 29.080011,-53.770065 61.390451,-54.494816 33.10004,-0.742463 56.60678,30.085926 61.39045,54.494816 z"
         id="path4485-3" />
    </g>
    <g
       transform="translate(-17.452136,21.581201)"
       id="g4793">
      <g
         id="g4767">
        <g
           id="g4742">
          <g
             id="g4718">
            <path
               id="path4485"
               d="m 176.78121,131.75728 c 6.12549,31.25558 -28.01696,39.86393 -61.92197,39.86393 -33.905006,0 -67.683605,-8.75354 -60.858925,-39.86393 6.112469,-27.86377 29.080007,-53.770065 61.390445,-54.494816 33.10004,-0.742463 56.60678,30.085926 61.39045,54.494816 z"
               style="opacity:1;fill:#999999;fill-opacity:1;stroke:none;stroke-width:1.32291663;stroke-linejoin:round;stroke-miterlimit:4;stroke-dasharray:none;stroke-opacity:0.75294118" />
            <path
               id="path4488"
               d="m 109.08777,122.71061 c 0,6.19753 -8.15922,6.53781 -18.224127,6.53781 -10.064906,0 -18.224125,-0.34028 -18.224126,-6.53781 10e-7,-6.19752 5.465065,-18.7066 19.080293,-18.54006 14.21979,0.17394 17.36796,12.34254 17.36796,18.54006 z"
               style="opacity:1;fill:#ffffff;fill-opacity:1;stroke:none;stroke-width:1.39906883;stroke-linejoin:round;stroke-miterlimit:4;stroke-dasharray:none;stroke-opacity:0.75294118" />
            <path
               id="path4491"
               d="m 74.235083,101.73961 c 7.001865,-0.0633 19.270882,-3.78285 22.866823,-11.133145 2.426669,-4.960254 9.447044,-4.91393 4.632314,2.522048 -6.224573,9.613357 -29.205477,13.959127 -31.216842,13.709047 -4.078896,-0.5071 -3.569867,-5.03203 3.717705,-5.09795 z"
               style="fill:#4d4d4d;stroke:none;stroke-width:0.20076978px;stroke-linecap:butt;stroke-linejoin:miter;stroke-opacity:1" />
            <path
               id="path4488-6"
               d="m 90.956209,107.91208 a 16.942169,16.60997 0 0 0 -16.942117,16.60984 16.942169,16.60997 0 0 0 0.130741,1.88981 c 2.804599,2.64632 9.233006,2.83651 16.718875,2.83651 7.701399,0 14.282092,-0.20261 16.950382,-3.07268 a 16.942169,16.60997 0 0 0 0.0842,-1.65364 16.942169,16.60997 0 0 0 -16.942111,-16.60984 z"
               style="opacity:1;fill:#333333;fill-opacity:1;stroke:none;stroke-width:1.39906883;stroke-linejoin:round;stroke-miterlimit:4;stroke-dasharray:none;stroke-opacity:0.75294118" />
            <ellipse
               ry="2.7226524"
               rx="1.7938768"
               cy="122.32954"
               cx="80.325813"
               id="path4550"
               style="opacity:1;fill:#ffffff;fill-opacity:1;stroke:none;stroke-width:1.32291663;stroke-linejoin:round;stroke-miterlimit:4;stroke-dasharray:none;stroke-opacity:0.75294118" />
            <ellipse
               ry="5.3934751"
               rx="5.7871847"
               cy="115.46892"
               cx="91.705147"
               id="path4550-6"
               style="opacity:1;fill:#ffffff;fill-opacity:1;stroke:none;stroke-width:3.34432173;stroke-linejoin:round;stroke-miterlimit:4;stroke-dasharray:none;stroke-opacity:0.75294118" />
            <ellipse
               ry="2.3525116"
               rx="2.5242383"
               cy="125.14086"
               cx="95.478027"
               id="path4550-6-2"
               style="opacity:1;fill:#ffffff;fill-opacity:1;stroke:none;stroke-width:1.45871711;stroke-linejoin:round;stroke-miterlimit:4;stroke-dasharray:none;stroke-opacity:0.75294118" />
            <ellipse
               ry="0.75795448"
               rx="0.81328297"
               cy="120.51643"
               cx="104.54771"
               id="path4550-6-2-9"
               style="opacity:1;fill:#ffffff;fill-opacity:1;stroke:none;stroke-width:0.46998331;stroke-linejoin:round;stroke-miterlimit:4;stroke-dasharray:none;stroke-opacity:0.75294118" />
            <path
               id="path4597"
               d="m 127.29601,148.05308 c -10e-6,2.17949 -5.70152,1.03355 -12.9665,1.03355 -7.26498,0 -13.34234,1.14594 -13.34235,-1.03355 0,-2.1795 6.07736,-5.63761 13.34235,-5.63761 7.26499,0 12.9665,3.45811 12.9665,5.63761 z"
               style="opacity:1;fill:#ffffff;fill-opacity:1;stroke:none;stroke-width:1.32291663;stroke-linejoin:round;stroke-miterlimit:4;stroke-dasharray:none;stroke-opacity:0.75294118" />
            <path
               id="path4597-1"
               d="m 123.32298,154.0558 c -1e-5,1.03945 -4.05039,-0.29924 -9.09963,-0.29924 -5.04924,0 -9.18531,1.33869 -9.18532,0.29924 0,-1.03945 4.22384,-2.6887 9.27309,-2.6887 5.04925,0 9.01186,1.64925 9.01186,2.6887 z"
               style="opacity:1;fill:#808080;fill-opacity:0.65748028;stroke:none;stroke-width:0.76164383;stroke-linejoin:round;stroke-miterlimit:4;stroke-dasharray:none;stroke-opacity:0.75294118" />
            <path
               id="path4597-1-2"
               d="m 101.68947,133.92041 c -0.0314,1.55218 -6.92354,-0.58688 -15.565732,-0.76144 -8.642197,-0.17456 -15.761792,1.68148 -15.730461,0.12929 0.03135,-1.55219 7.310545,-3.86894 15.952751,-3.69438 8.6422,0.17456 15.374792,2.77434 15.343442,4.32653 z"
               style="opacity:1;fill:#808080;fill-opacity:1;stroke:none;stroke-width:1.21789432;stroke-linejoin:round;stroke-miterlimit:4;stroke-dasharray:none;stroke-opacity:0.75294118" />
            <path
               id="path4488-7"
               d="m 121.79896,122.32628 c 0,6.19753 8.15922,6.53781 18.22413,6.53781 10.0649,0 18.22412,-0.34028 18.22412,-6.53781 0,-6.19752 -5.46506,-18.7066 -19.08029,-18.54006 -14.21979,0.17394 -17.36796,12.34254 -17.36796,18.54006 z"
               style="opacity:1;fill:#ffffff;fill-opacity:1;stroke:none;stroke-width:1.39906883;stroke-linejoin:round;stroke-miterlimit:4;stroke-dasharray:none;stroke-opacity:0.75294118" />
            <path
               id="path4488-6-0"
               d="m 139.97015,107.66063 a 16.942169,16.60997 0 0 0 -16.94212,16.60984 16.942169,16.60997 0 0 0 0.13074,1.88981 c 2.8046,2.64632 9.23301,2.83651 16.71888,2.83651 7.7014,0 14.28209,-0.20261 16.95038,-3.07268 a 16.942169,16.60997 0 0 0 0.0842,-1.65364 16.942169,16.60997 0 0 0 -16.94211,-16.60984 z"
               style="opacity:1;fill:#333333;fill-opacity:1;stroke:none;stroke-width:1.39906883;stroke-linejoin:round;stroke-miterlimit:4;stroke-dasharray:none;stroke-opacity:0.75294118" />
            <ellipse
               ry="2.7226527"
               rx="1.7938768"
               cy="122.07808"
               cx="129.33977"
               id="path4550-9"
               style="opacity:1;fill:#ffffff;fill-opacity:1;stroke:none;stroke-width:1.32291663;stroke-linejoin:round;stroke-miterlimit:4;stroke-dasharray:none;stroke-opacity:0.75294118" />
            <ellipse
               ry="5.3934751"
               rx="5.7871847"
               cy="115.21748"
               cx="140.7191"
               id="path4550-6-3"
               style="opacity:1;fill:#ffffff;fill-opacity:1;stroke:none;stroke-width:3.34432173;stroke-linejoin:round;stroke-miterlimit:4;stroke-dasharray:none;stroke-opacity:0.75294118" />
            <ellipse
               ry="2.3525116"
               rx="2.5242383"
               cy="124.88941"
               cx="144.49199"
               id="path4550-6-2-6"
               style="opacity:1;fill:#ffffff;fill-opacity:1;stroke:none;stroke-width:1.45871723;stroke-linejoin:round;stroke-miterlimit:4;stroke-dasharray:none;stroke-opacity:0.75294118" />
            <ellipse
               ry="0.75795448"
               rx="0.81328297"
               cy="120.26499"
               cx="153.56166"
               id="path4550-6-2-9-0"
               style="opacity:1;fill:#ffffff;fill-opacity:1;stroke:none;stroke-width:0.46998331;stroke-linejoin:round;stroke-miterlimit:4;stroke-dasharray:none;stroke-opacity:0.75294118" />
            <path
               id="path4597-1-2-6"
               d="m 129.19726,133.53608 c 0.0314,1.55218 6.92354,-0.58688 15.56573,-0.76144 8.6422,-0.17456 15.76179,1.68148 15.73046,0.12929 -0.0314,-1.55219 -7.31054,-3.86894 -15.95275,-3.69438 -8.6422,0.17456 -15.37479,2.77434 -15.34344,4.32653 z"
               style="opacity:1;fill:#808080;fill-opacity:1;stroke:none;stroke-width:1.21789432;stroke-linejoin:round;stroke-miterlimit:4;stroke-dasharray:none;stroke-opacity:0.75294118" />
            <path
               id="path4491-2"
               d="m 156.04439,101.37151 c -7.00187,-0.0633 -19.27089,-3.782853 -22.86683,-11.133147 -2.42667,-4.960254 -9.44704,-4.91393 -4.63231,2.522048 6.22457,9.613359 29.20548,13.959129 31.21684,13.709049 4.0789,-0.5071 3.56987,-5.03203 -3.7177,-5.09795 z"
               style="fill:#4d4d4d;stroke:none;stroke-width:0.20076978px;stroke-linecap:butt;stroke-linejoin:miter;stroke-opacity:1" />
            <ellipse
               transform="rotate(5.5610692)"
               ry="6.483252"
               rx="12.402744"
               cy="136.40434"
               cx="80.497002"
               id="path4678"
               style="opacity:1;fill:#808080;fill-opacity:0.34251966;stroke:none;stroke-width:1.42434621;stroke-linejoin:round;stroke-miterlimit:4;stroke-dasharray:none;stroke-opacity:0.75294118" />
            <ellipse
               transform="matrix(0.99529347,-0.09690665,-0.09690665,-0.99529347,0,0)"
               ry="6.483252"
               rx="12.402744"
               cy="-158.99869"
               cx="148.79079"
               id="path4678-6"
               style="opacity:1;fill:#808080;fill-opacity:0.34251966;stroke:none;stroke-width:1.42434621;stroke-linejoin:round;stroke-miterlimit:4;stroke-dasharray:none;stroke-opacity:0.75294118" />
          </g>
        </g>
      </g>
    </g>
  </g>
</svg>
