<svg width="130" height="29" viewBox="0 0 130 29" fill="none" xmlns="http://www.w3.org/2000/svg">
<path d="M4.04996 18.3428C3.99445 17.7758 3.9852 17.2655 4.0222 16.8119C4.04071 16.3582 4.10547 15.9235 4.2165 15.5077C4.30902 15.0919 4.43854 14.695 4.60508 14.317C4.79012 13.939 4.99367 13.5326 5.21571 13.0979C5.47477 13.0034 5.70607 12.8806 5.90961 12.7294C6.11316 12.5593 6.30745 12.3986 6.49249 12.2474C6.67753 12.0773 6.85332 11.9356 7.01985 11.8222C7.20489 11.6899 7.38068 11.6143 7.54722 11.5954L7.82478 11.4253C8.19486 10.9906 8.64821 10.5936 9.18482 10.2345C9.72144 9.85653 10.2766 9.49742 10.8502 9.15722C11.3313 8.87371 11.8031 8.59021 12.2657 8.3067C12.7283 8.0043 13.1539 7.66409 13.5425 7.28608C13.7276 7.30498 13.8848 7.26718 14.0144 7.17268C14.1069 7.04038 14.1439 6.89863 14.1254 6.74742C14.1809 6.70962 14.2272 6.67182 14.2642 6.63402C14.3197 6.57732 14.3752 6.53007 14.4307 6.49227C14.5787 6.35997 14.7823 6.22766 15.0413 6.09536C15.3189 5.94416 15.5039 5.7457 15.5965 5.5L16.3181 4.79124L15.3189 4.81959C14.8193 4.81959 14.2827 4.84794 13.7091 4.90464C13.1539 4.96134 12.6728 5.00859 12.2657 5.04639C11.9327 5.08419 11.5903 5.11254 11.2388 5.13144C10.9057 5.15034 10.5264 5.16924 10.1008 5.18814C9.7492 4.96134 9.44388 4.66839 9.18482 4.30928C8.94427 3.95017 8.74998 3.56272 8.60195 3.14691C8.47242 2.7311 8.3984 2.29639 8.3799 1.84278C8.36139 1.38918 8.41691 0.954467 8.54643 0.53866C8.69447 0.500859 8.82399 0.463058 8.93502 0.425258C9.06455 0.368557 9.18482 0.311856 9.29585 0.255155C9.49939 0.236254 9.62892 0.236254 9.68443 0.255155C9.75845 0.274055 9.84171 0.283505 9.93423 0.283505C11.0445 0.0945017 11.9512 0 12.6543 0C13.4315 0 14.1346 0.0945017 14.7638 0.283505C15.5409 0.283505 16.3274 0.255155 17.123 0.198454C17.9372 0.141753 18.7606 0.189003 19.5933 0.340206C20.1855 0.151203 20.7776 0.103952 21.3697 0.198454C21.9618 0.274055 22.4707 0.53866 22.8963 0.992268C22.9333 1.37027 23.0351 1.66323 23.2016 1.87113C23.3681 2.06014 23.5902 2.20189 23.8678 2.29639C24.0343 2.9579 24.0435 3.53436 23.8955 4.02577C23.766 4.51718 23.5347 4.96134 23.2016 5.35825C22.8685 5.73625 22.4707 6.07646 22.0081 6.37887C21.5455 6.68127 21.0921 6.97423 20.6481 7.25773C20.5185 7.46564 20.3612 7.63574 20.1762 7.76804C19.9912 7.90034 19.8154 8.0421 19.6488 8.1933C18.9272 9.17612 18.0852 10.0172 17.123 10.7165C16.1793 11.3969 15.2171 12.0679 14.2364 12.7294L12.127 14.2036C11.4423 14.695 10.7762 15.2242 10.1285 15.7912L9.7677 16.1031L10.073 16.4433C10.3321 16.7079 10.6466 16.8402 11.0167 16.8402C11.2203 16.8402 11.4146 16.8119 11.5996 16.7552C11.8031 16.6985 11.9882 16.6323 12.1547 16.5567C12.3213 16.5 12.4693 16.4527 12.5988 16.4149C12.7468 16.3582 12.8671 16.3299 12.9596 16.3299L13.265 16.3866C13.5425 16.2354 13.7646 16.1314 13.9311 16.0747C14.1161 15.9991 14.3012 15.933 14.4862 15.8763C14.6343 15.8385 14.7915 15.7912 14.9581 15.7345C15.1431 15.6778 15.3189 15.6022 15.4854 15.5077C15.9665 15.5077 16.4291 15.4416 16.8732 15.3093C17.3173 15.1581 17.7522 14.9974 18.1778 14.8273C18.4368 14.7328 18.6866 14.6383 18.9272 14.5438C19.1862 14.4493 19.4453 14.3643 19.7043 14.2887C19.7969 14.421 19.8986 14.5344 20.0097 14.6289C20.1392 14.7045 20.2595 14.7706 20.3705 14.8273C20.537 14.9218 20.6573 15.0069 20.7313 15.0825C20.8053 15.1392 20.8516 15.2242 20.8701 15.3376L20.9811 16.2732L21.564 15.6211C21.8416 15.8857 21.9896 16.1598 22.0081 16.4433C22.0266 16.7079 21.9988 17.0576 21.9248 17.4923C21.2032 18.2294 20.3057 18.8058 19.2325 19.2216C18.1778 19.6375 17.0583 20.0249 15.874 20.384C15.615 20.4596 15.3652 20.5352 15.1246 20.6108C14.8841 20.6675 14.6343 20.7431 14.3752 20.8376L14.403 20.2423L13.6813 20.7242C13.5888 20.7998 13.5148 20.866 13.4592 20.9227L13.2927 21.1495C12.7191 21.2818 12.238 21.3857 11.8494 21.4613C11.4793 21.5369 11.1277 21.6125 10.7947 21.6881C10.4246 21.7826 10.073 21.8582 9.73994 21.9149C9.42537 21.9717 9.0738 22 8.68521 22C8.55569 22 8.42616 21.9906 8.29663 21.9716C8.18561 21.9716 8.06533 21.9622 7.9358 21.9433C7.82478 21.9055 7.69525 21.8677 7.54722 21.8299L7.15863 21.0928L6.63127 21.4897C6.42773 21.3196 6.19643 21.14 5.93737 20.951C5.71532 20.762 5.51178 20.573 5.32674 20.384C5.1417 20.195 5.03993 20.006 5.02142 19.817L4.99367 19.4768L4.66059 19.3918C4.62358 19.354 4.58658 19.2595 4.54957 19.1082C4.51256 18.9948 4.45705 18.8625 4.38303 18.7113C4.30902 18.5601 4.19799 18.4373 4.04996 18.3428Z" fill="#F4F4F4"/>
<path d="M113.881 13.2743C113.781 13.1838 113.704 13.0748 113.651 12.9473C113.61 12.8193 113.509 12.7171 113.349 12.6407C113.318 12.4652 113.274 12.2667 113.218 12.0451C113.172 11.8112 113.121 11.5777 113.064 11.3443C113.019 11.0987 112.979 10.8588 112.946 10.6245C112.925 10.378 112.929 10.1542 112.957 9.9529C112.978 9.84616 113.01 9.74485 113.055 9.64896C113.112 9.55262 113.163 9.46239 113.208 9.37827C113.265 9.28193 113.304 9.18627 113.325 9.09129C113.358 8.99586 113.36 8.90156 113.332 8.8084C113.404 8.79392 113.445 8.75705 113.455 8.69781C113.477 8.62635 113.537 8.60056 113.634 8.62045C113.709 8.35858 113.791 8.11412 113.879 7.88708C113.968 7.66003 114.062 7.43864 114.163 7.2229L114.466 6.57567C114.578 6.34772 114.678 6.0967 114.765 5.82262C114.552 5.64218 114.393 5.44795 114.289 5.23992C114.196 5.01967 114.121 4.79875 114.064 4.57714C114.007 4.35553 113.962 4.13347 113.93 3.91096C113.897 3.67669 113.84 3.44333 113.758 3.21087C113.896 2.99377 114.064 2.81669 114.265 2.67963C114.466 2.53082 114.685 2.41072 114.924 2.31934C115.174 2.21575 115.444 2.13499 115.732 2.07707C116.02 2.0074 116.326 1.93116 116.65 1.84837C117.224 1.65022 117.739 1.49549 118.195 1.38419C118.651 1.26113 119.095 1.16204 119.528 1.08693C119.961 1.00005 120.412 0.924253 120.882 0.859535C121.352 0.783057 121.893 0.680341 122.506 0.551387C122.519 0.586211 122.538 0.603169 122.562 0.602262L122.689 0.597501C122.728 0.678453 122.796 0.717116 122.893 0.713488C122.892 0.678212 122.885 0.649041 122.872 0.625977L122.868 0.537785C122.893 0.536878 122.923 0.541624 122.96 0.552023C123.009 0.561968 123.045 0.572367 123.07 0.583219C123.107 0.593617 123.137 0.592484 123.161 0.579818C123.184 0.555393 123.188 0.51401 123.174 0.455669C123.329 0.697165 123.524 0.895919 123.76 1.05193C123.995 1.19618 124.254 1.32189 124.537 1.42905C124.553 1.53442 124.556 1.61086 124.545 1.65835C124.547 1.70538 124.543 1.75264 124.533 1.80013C124.522 1.83586 124.517 1.88312 124.52 1.94192C124.521 1.98895 124.536 2.05906 124.564 2.15222C124.382 2.47696 124.168 2.73229 123.92 2.9182C123.685 3.10365 123.43 3.24862 123.156 3.35312C122.881 3.45762 122.587 3.53928 122.275 3.59811C121.974 3.65648 121.662 3.72118 121.337 3.79222C121.025 3.85104 120.707 3.93361 120.384 4.03993C120.061 4.14624 119.746 4.29936 119.438 4.49929C119.34 4.46764 119.249 4.45929 119.165 4.47422C119.092 4.47694 119.014 4.49165 118.93 4.51834C118.846 4.54503 118.751 4.57217 118.643 4.59977C118.547 4.62692 118.426 4.63145 118.28 4.61337C118.186 4.69931 118.073 4.76242 117.942 4.80268C117.822 4.84249 117.696 4.88253 117.565 4.92279C117.63 5.04987 117.659 5.17832 117.652 5.30812C117.657 5.43747 117.679 5.54849 117.719 5.64121C118.229 5.6692 118.791 5.64811 119.406 5.57795C120.021 5.49604 120.624 5.43221 121.215 5.38648C121.23 5.44482 121.225 5.4862 121.202 5.51062C121.179 5.53505 121.168 5.57666 121.17 5.63545C121.282 5.70192 121.388 5.78626 121.489 5.88847L121.791 6.19508C121.903 6.28507 122.015 6.3633 122.126 6.42977C122.238 6.48448 122.365 6.50324 122.51 6.48604C122.575 6.60136 122.622 6.72324 122.651 6.85169C122.68 6.98013 122.667 7.11603 122.612 7.25941C122.376 7.42134 122.146 7.58893 121.922 7.76217C121.698 7.92365 121.461 8.07382 121.212 8.2127C120.975 8.35111 120.713 8.46692 120.426 8.56011C120.139 8.6533 119.826 8.70037 119.487 8.70131L119.323 8.70743C119.287 8.70879 119.238 8.68708 119.176 8.64231C119.057 8.70564 118.895 8.73528 118.688 8.73123C118.494 8.71497 118.332 8.73873 118.201 8.80251C118.029 8.75006 117.829 8.72815 117.599 8.73676C117.381 8.74492 117.186 8.72278 117.015 8.67033C116.809 8.98423 116.615 9.3153 116.435 9.66357C116.253 10.0001 116.097 10.3592 115.966 10.7409C116.465 10.7929 116.877 10.8069 117.203 10.7829C117.529 10.7589 117.837 10.7238 118.126 10.6776C118.415 10.6315 118.71 10.5851 119.011 10.5385C119.324 10.4914 119.704 10.4654 120.152 10.4603C120.449 10.3079 120.79 10.2009 121.176 10.1394C121.572 10.0656 121.938 9.96946 122.273 9.85093C122.395 9.88168 122.501 9.94838 122.589 10.051C122.677 10.1419 122.76 10.2389 122.836 10.342C122.924 10.4329 123.012 10.5121 123.1 10.5795C123.187 10.6468 123.297 10.6663 123.429 10.6378C123.491 10.6943 123.53 10.7635 123.545 10.8453C123.573 10.9268 123.594 11.0025 123.608 11.0726C123.635 11.1423 123.668 11.1999 123.706 11.2456C123.743 11.2795 123.81 11.2888 123.907 11.2734C123.694 11.7406 123.447 12.1031 123.166 12.3609C122.897 12.6183 122.584 12.8243 122.227 12.979C121.881 13.1215 121.485 13.2365 121.041 13.3238C120.607 13.3989 120.121 13.4937 119.58 13.6082C119.448 13.6367 119.333 13.641 119.235 13.6211C119.149 13.589 119.058 13.5748 118.961 13.5784C118.625 13.6499 118.222 13.7239 117.752 13.8003C117.295 13.8764 116.83 13.9173 116.358 13.9233C115.886 13.9292 115.43 13.8874 114.991 13.7979C114.552 13.7084 114.182 13.5338 113.881 13.2743Z" fill="#F4F4F4"/>
<path fill-rule="evenodd" clip-rule="evenodd" d="M101.162 12.709C101.214 12.8013 101.27 12.8404 101.33 12.8263C101.297 12.9218 101.288 13.0045 101.303 13.0746L101.383 13.2836C101.41 13.3415 101.43 13.4113 101.446 13.4932C101.46 13.5633 101.452 13.6519 101.419 13.7591C101.576 13.7415 101.675 13.7849 101.715 13.8894C101.755 13.9821 101.795 14.0807 101.835 14.1851C101.967 14.1684 102.065 14.1765 102.126 14.2095C102.188 14.2425 102.244 14.2758 102.294 14.3092C102.343 14.3427 102.399 14.3701 102.46 14.3913C102.522 14.4243 102.613 14.4268 102.733 14.3987C102.828 14.3363 102.904 14.2687 102.962 14.1959C103.032 14.1226 103.164 14.1 103.359 14.128C103.589 13.8132 103.759 13.5066 103.869 13.208C103.991 12.9091 104.074 12.5233 104.116 12.0507C104.152 12.0375 104.17 12.0134 104.168 11.9781C104.179 11.9423 104.202 11.9179 104.238 11.9048C104.513 12.13 104.757 12.3269 104.969 12.4956C105.181 12.6525 105.41 12.8029 105.658 12.9467C105.905 13.0787 106.195 13.2151 106.527 13.3557C106.859 13.4963 107.289 13.6509 107.816 13.8196C108.883 14.1682 109.758 14.4062 110.441 14.5337C111.124 14.6612 111.68 14.6344 112.109 14.4535C112.229 14.4372 112.325 14.3924 112.394 14.3191C112.477 14.2454 112.546 14.1663 112.604 14.0817L112.776 13.8279C112.833 13.7434 112.903 13.6701 112.985 13.6081C112.925 13.5986 112.864 13.6009 112.804 13.6149C112.756 13.6167 112.725 13.5943 112.711 13.5478C112.792 13.4505 112.836 13.3252 112.842 13.1719C112.86 13.0064 112.848 12.8361 112.805 12.6611C112.762 12.4861 112.695 12.3119 112.603 12.1387C112.512 11.9655 112.398 11.8167 112.26 11.6924C111.932 11.6693 111.671 11.6497 111.476 11.6334C111.282 11.6172 111.1 11.6005 110.929 11.5833C110.759 11.5544 110.564 11.5205 110.344 11.4816C110.137 11.4305 109.844 11.3708 109.466 11.3026C109.088 11.2343 108.789 11.1749 108.569 11.1242C108.361 11.0731 108.165 11.0098 107.98 10.9343C107.808 10.8466 107.616 10.7419 107.405 10.6203C107.207 10.4982 106.923 10.3381 106.552 10.1401C106.573 10.0686 106.554 10.034 106.493 10.0363C106.445 10.0381 106.42 10.0155 106.418 9.96844C106.894 9.7504 107.426 9.54796 108.012 9.36112C108.598 9.16252 109.147 8.93588 109.658 8.6812C110.181 8.41432 110.617 8.08593 110.965 7.69604C111.326 7.29394 111.518 6.78037 111.543 6.15534C111.54 6.06127 111.531 5.98506 111.517 5.92672C111.502 5.85662 111.482 5.79851 111.456 5.75238C111.441 5.69404 111.427 5.64157 111.413 5.59499C111.411 5.5362 111.421 5.47107 111.442 5.39961C111.326 5.20379 111.221 4.98988 111.128 4.75787C111.034 4.52587 110.935 4.29997 110.83 4.08018C110.736 3.84817 110.625 3.63449 110.497 3.43912C110.38 3.23154 110.234 3.05449 110.059 2.90797L110.049 2.6434L109.752 2.47789C109.665 2.41052 109.572 2.34924 109.473 2.29407C109.23 1.96168 108.924 1.69058 108.552 1.48076C108.181 1.25918 107.846 1.05388 107.548 0.864865C106.994 0.944516 106.535 1.13836 106.171 1.44638C105.807 1.75441 105.482 2.10812 105.194 2.5075C104.918 2.89466 104.642 3.29359 104.367 3.70427C104.091 4.11496 103.772 4.46844 103.407 4.76471C103.343 4.6729 103.213 4.60123 103.018 4.54969C102.834 4.48594 102.657 4.46899 102.489 4.49886C102.356 4.82179 102.248 5.16733 102.165 5.53549C102.093 5.89143 102.028 6.26478 101.97 6.65555C101.912 7.03455 101.842 7.41989 101.759 7.81156C101.689 8.20278 101.582 8.5836 101.439 8.95402C101.454 9.02412 101.463 9.11796 101.468 9.23555C101.484 9.34093 101.482 9.44699 101.461 9.55372C101.453 9.64825 101.432 9.73147 101.398 9.80338C101.376 9.86308 101.334 9.87643 101.272 9.84342C101.365 10.0519 101.391 10.257 101.35 10.4587C101.321 10.6482 101.28 10.8499 101.227 11.0639C101.174 11.266 101.128 11.4797 101.088 11.705C101.06 11.918 101.093 12.1523 101.187 12.4078L100.987 12.4153C101.051 12.5071 101.11 12.605 101.162 12.709ZM106.584 5.17552C106.77 4.98012 106.938 4.76777 107.087 4.53845C107.368 4.62209 107.641 4.79438 107.905 5.05532C108.169 5.30449 108.339 5.64548 108.416 6.0783C107.928 6.29679 107.409 6.52817 106.862 6.77245C106.313 7.00496 105.786 7.16014 105.28 7.23798C105.329 6.91822 105.422 6.64391 105.558 6.41505C105.695 6.17443 105.85 5.95665 106.024 5.76171C106.21 5.55455 106.397 5.35916 106.584 5.17552Z" fill="#F4F4F4"/>
<path fill-rule="evenodd" clip-rule="evenodd" d="M91.43 14.7872C90.9006 14.8777 90.4159 14.8723 89.9761 14.771C89.5363 14.6698 89.1365 14.5022 88.7765 14.2685C88.4286 14.0342 88.1213 13.7513 87.8545 13.4199C87.5999 13.0879 87.3867 12.7309 87.2149 12.3487C87.0761 11.5532 87.0792 10.8289 87.2243 10.1758C87.3689 9.51096 87.5941 8.89608 87.8999 8.33117C88.2057 7.76626 88.5552 7.23504 88.9483 6.73751C89.3535 6.23952 89.7412 5.75985 90.1115 5.29851C90.1975 5.33061 90.264 5.32812 90.311 5.29103C90.3702 5.25348 90.4168 5.20463 90.4509 5.14448L90.5894 4.96265C90.6477 4.90159 90.7126 4.85794 90.7843 4.8317C90.8287 4.72406 90.8859 4.6336 90.9558 4.56033C91.0378 4.4866 91.12 4.41875 91.2025 4.35678C91.2966 4.2826 91.3786 4.20888 91.4485 4.1356C91.5305 4.06187 91.5998 3.97096 91.6563 3.86286C91.7764 3.83481 91.8776 3.7898 91.9601 3.72783C92.0546 3.66541 92.1368 3.59756 92.2067 3.52429C92.2888 3.45056 92.371 3.38271 92.4535 3.32075C92.5359 3.25878 92.6369 3.20789 92.7566 3.16808L92.748 2.93878C93.0096 2.81121 93.1983 2.67461 93.3139 2.52897C93.4296 2.38333 93.5678 2.19563 93.7288 1.96586C93.8614 1.94911 93.964 1.93938 94.0365 1.93666C94.1212 1.93348 94.2477 1.91696 94.4162 1.8871C94.5175 1.68312 94.6148 1.53228 94.708 1.43458C94.8012 1.33688 94.9363 1.22583 95.1133 1.10144C95.2983 1.18871 95.494 1.24025 95.7005 1.25606C95.9065 1.26012 96.0973 1.34128 96.2727 1.49956C96.2901 1.64021 96.3366 1.75033 96.4123 1.82992C96.4875 1.89776 96.5688 1.96536 96.6561 2.03274C96.7429 2.08836 96.83 2.14986 96.9173 2.21724C97.0046 2.28462 97.0628 2.38253 97.0918 2.51098C97.1523 2.50871 97.1881 2.49559 97.1993 2.47162C97.2226 2.44719 97.2647 2.43973 97.3257 2.44922C97.3534 2.54238 97.3804 2.61791 97.4068 2.6758C97.4332 2.73368 97.4594 2.78569 97.4853 2.83182C97.5234 2.8775 97.5556 2.92928 97.582 2.98717C97.6205 3.0446 97.6534 3.11402 97.6806 3.19543C97.6254 3.3388 97.5768 3.49371 97.5346 3.66015C97.4919 3.81483 97.3991 3.92428 97.2562 3.98852C97.2597 4.08259 97.298 4.13414 97.371 4.14318C97.4436 4.14046 97.4874 4.18003 97.5026 4.26189C97.5187 4.36727 97.5038 4.45614 97.4581 4.52851C97.8175 5.06848 98.1477 5.63898 98.4488 6.24002C98.7494 6.8293 99.0854 7.39369 99.4569 7.93321C99.4389 8.09875 99.4511 8.26314 99.4935 8.42641C99.5476 8.57746 99.6078 8.72829 99.674 8.87888C99.7523 9.02903 99.8245 9.1794 99.8907 9.33C99.9569 9.4806 100.005 9.63188 100.035 9.78384C100.067 9.98283 100.075 10.2004 100.059 10.4365C100.044 10.6608 100.003 10.8801 99.9387 11.0945C99.8741 11.3089 99.7848 11.5124 99.671 11.7051C99.5566 11.886 99.4226 12.0265 99.2689 12.1264C99.0842 12.3689 98.8496 12.572 98.5651 12.7357C98.2802 12.8877 98.0205 13.0682 97.7861 13.2771C97.6203 13.3776 97.4416 13.4549 97.2498 13.5092C97.0576 13.5517 96.8596 13.6004 96.6558 13.6551C96.5021 13.7551 96.3182 13.8562 96.104 13.9584C95.8894 14.0489 95.6685 14.1337 95.4414 14.2129C95.2143 14.292 94.9867 14.3595 94.7587 14.4151C94.5302 14.459 94.3248 14.4726 94.1426 14.4559C93.7129 14.6251 93.2936 14.7468 92.8846 14.821C92.4756 14.8952 91.9908 14.8839 91.43 14.7872ZM91.4252 8.35797C91.3144 8.63296 91.1785 8.88534 91.0176 9.11511C90.8683 9.33266 90.7192 9.5561 90.5704 9.78541C90.4215 10.0147 90.2915 10.261 90.1802 10.5242C90.0807 10.7752 90.0312 11.0715 90.0319 11.4129C90.2813 11.6038 90.5701 11.7166 90.8984 11.7514C91.2383 11.774 91.5832 11.7669 91.9331 11.7303C92.2825 11.6818 92.6314 11.6216 92.98 11.5497C93.3285 11.4778 93.6418 11.4366 93.92 11.4261C93.916 11.3203 93.9624 11.2656 94.0591 11.262C94.5653 11.1959 95.0319 11.043 95.4589 10.8032C95.8855 10.5517 96.3302 10.2995 96.793 10.0467C96.8482 9.90331 96.9222 9.7769 97.015 9.66744C97.1077 9.55798 97.1564 9.40307 97.161 9.20272C97.0966 9.09916 97.051 9.01255 97.0241 8.9429C97.0094 8.8728 96.9994 8.7672 96.9941 8.62609C96.6638 8.21456 96.3745 7.76617 96.1262 7.28091C95.8774 6.78389 95.5935 6.31763 95.2744 5.88212C95.2524 5.94182 95.2063 6.00243 95.1359 6.06395C95.0655 6.12546 94.9865 6.11665 94.8988 6.03751C94.8669 6.15646 94.8155 6.24081 94.7447 6.29057C94.6735 6.32857 94.5895 6.34938 94.4928 6.35301C94.4081 6.35618 94.3167 6.34194 94.2187 6.31029C94.1327 6.27819 94.0523 6.2341 93.9775 6.17803C93.5666 6.52315 93.1552 6.85651 92.7434 7.17811C92.3437 7.49926 91.9822 7.87196 91.659 8.29622C91.5999 8.33376 91.564 8.34688 91.5515 8.33557C91.539 8.32427 91.4968 8.33173 91.4252 8.35797Z" fill="#F4F4F4"/>
<path d="M77.8795 6.02205C77.921 6.07135 77.9583 6.12294 77.9912 6.17683C78.0682 6.29169 78.0862 6.44999 78.0453 6.6517C77.9279 6.75031 77.8103 6.84303 77.6925 6.92988C77.5863 7.00451 77.4677 7.07372 77.3369 7.1375C76.8855 7.04845 76.4306 7.03018 75.9724 7.08268C75.5141 7.13519 75.1041 7.18 74.7421 7.21712C74.6293 7.11537 74.4943 7.06744 74.3371 7.07334C74.1919 7.07878 74.0356 7.10819 73.8681 7.16158C73.7126 7.21451 73.5511 7.26766 73.3836 7.32104C73.2281 7.37397 73.0774 7.3914 72.9314 7.37332C72.8139 7.47193 72.6652 7.54227 72.4851 7.58435C72.3167 7.61422 72.1301 7.64476 71.9254 7.67599C71.9155 7.73523 71.9291 7.77594 71.9663 7.7981C72.003 7.80849 72.0104 7.84354 71.9884 7.90324C72.0641 7.98284 72.157 8.03823 72.2671 8.06943L72.6339 8.16166C72.7683 8.19194 72.8849 8.23467 72.9839 8.28984C73.0824 8.33325 73.152 8.41307 73.1927 8.5293C73.3741 8.5225 73.5329 8.55776 73.669 8.63508C73.8051 8.71241 73.9177 8.80828 74.0068 8.92269C74.0958 9.03711 74.1611 9.16419 74.2027 9.30394C74.2559 9.43147 74.2845 9.54815 74.2885 9.65398C74.3283 9.74669 74.3722 9.78626 74.4201 9.77269C74.468 9.75912 74.5234 9.78059 74.586 9.83712C74.628 9.98863 74.7247 10.144 74.876 10.3032C75.0268 10.4506 75.1481 10.6168 75.2398 10.8017C75.275 11.0948 75.3031 11.3587 75.324 11.5934C75.3445 11.8164 75.3108 12.0473 75.2228 12.2861C75.0577 12.728 74.8183 13.1255 74.5046 13.4788C74.2029 13.8316 73.8516 14.1509 73.4505 14.4368C73.0611 14.7104 72.6402 14.95 72.1876 15.1553C71.7351 15.3607 71.2936 15.5362 70.8631 15.6819C70.8143 15.672 70.7659 15.6738 70.718 15.6873C70.67 15.7009 70.6568 15.672 70.6784 15.6005C70.5847 15.6865 70.4778 15.7434 70.3578 15.7715C70.2498 15.7991 70.1291 15.8095 69.9956 15.8027C69.8626 15.8077 69.7233 15.8071 69.5777 15.8007C69.4443 15.794 69.3175 15.8046 69.1974 15.8327C69.1097 15.7535 69.028 15.6742 68.9524 15.5946C68.8892 15.5263 68.8373 15.434 68.7966 15.3178C68.7362 15.3201 68.7048 15.2918 68.7026 15.233C68.7125 15.1738 68.6933 15.145 68.6449 15.1469C68.7131 15.0265 68.7409 14.9607 68.7283 14.9494C68.7275 14.9259 68.7086 14.909 68.6719 14.8986L68.598 14.866C68.573 14.8434 68.5658 14.8142 68.5766 14.7785C68.6214 14.6826 68.6356 14.5761 68.6191 14.459L68.5683 14.0723C68.5513 13.9434 68.5528 13.8197 68.5725 13.7012C68.6044 13.5822 68.6916 13.4848 68.8341 13.4088C69.247 13.4404 69.6336 13.4141 69.9938 13.33C70.3656 13.2336 70.7121 13.1087 71.0334 12.9554C71.3546 12.802 71.6573 12.6376 71.9413 12.4621C72.2375 12.2861 72.5283 12.1281 72.8137 11.9878C72.846 11.8806 72.8911 11.7906 72.9489 11.7178C73.0188 11.6445 73.089 11.5771 73.1593 11.5156C73.2297 11.4541 73.2938 11.3869 73.3516 11.3141C73.4094 11.2413 73.4484 11.1515 73.4687 11.0448C73.4777 10.962 73.4517 10.9159 73.3908 10.9064C73.3416 10.8847 73.3156 10.8386 73.313 10.768L73.1114 10.7226C72.8768 10.6018 72.6128 10.5058 72.3195 10.4343C72.0257 10.3511 71.774 10.2605 71.5645 10.1624C71.4341 10.2379 71.3077 10.2603 71.1855 10.2296C71.0753 10.1984 70.9289 10.1685 70.7461 10.1401C70.3341 10.1319 69.9334 10.1058 69.5442 10.0615C69.1671 10.0167 68.8003 9.9245 68.4439 9.78479C68.4175 9.7269 68.3853 9.67512 68.3472 9.62944C68.3092 9.58377 68.2422 9.5745 68.1464 9.60165C68.0703 9.5103 67.9944 9.42482 67.9187 9.34523C67.8427 9.25388 67.7724 9.15642 67.708 9.05286C67.7269 8.91085 67.7406 8.79258 67.7491 8.69805C67.7573 8.59177 67.7172 8.49318 67.6291 8.40228C67.6717 8.2476 67.7034 8.12277 67.724 8.0278C67.7447 7.93282 67.7401 7.80935 67.7101 7.65739C67.7855 7.40728 67.9106 7.19063 68.0854 7.00745C68.2723 6.82381 68.4724 6.66911 68.6857 6.54336C68.9106 6.4054 69.1425 6.29073 69.3813 6.19935C69.6201 6.10797 69.8472 6.0288 70.0627 5.96184C70.5389 5.7438 71.0459 5.53639 71.5835 5.33961C72.1327 5.13061 72.6889 4.9449 73.2521 4.78248C73.8273 4.61961 74.4165 4.5092 75.0199 4.45125C75.3447 4.4137 75.6796 4.40995 76.0246 4.43999C76.0154 4.41418 76.0064 4.38806 75.9975 4.36161C75.943 4.1988 75.9115 4.00569 75.9032 3.78227C75.9229 3.66377 75.9501 3.58032 75.9846 3.53193C76.0187 3.47177 76.0532 3.42338 76.0882 3.38674L76.1488 3.06653L76.4209 3.05633C76.5181 3.06446 76.6151 3.06671 76.7118 3.06308L77.0202 3.05152C77.4798 3.03429 77.9508 2.99897 78.4332 2.94556C78.9156 2.89215 79.41 2.8324 79.9161 2.76632C80.4698 2.67491 81.0665 2.59955 81.7061 2.54024C81.7617 2.40863 81.7949 2.32496 81.8057 2.28923C81.8286 2.25304 81.8512 2.21098 81.8736 2.16304L82.0692 2.04973C82.3469 2.02754 82.5418 2.05556 82.6537 2.13379C82.7652 2.20026 82.8525 2.26764 82.9156 2.33593C83.2291 2.30062 83.5485 2.25921 83.8737 2.21169C84.1985 2.15241 84.5354 2.09268 84.8843 2.0325C85.3659 1.95557 85.8535 1.87841 86.3471 1.80103C86.8408 1.72364 87.3234 1.67611 87.7951 1.65842C88.0007 1.65072 88.1944 1.64934 88.3762 1.6543C88.5581 1.65926 88.7341 1.67032 88.9043 1.68749L89.1279 1.83808C89.1794 1.91857 89.2427 1.99274 89.3179 2.06057C89.3932 2.12841 89.4805 2.19579 89.5799 2.26271C89.7665 2.39702 89.9485 2.56683 90.1258 2.77214C90.3151 2.977 90.3933 3.28612 90.3604 3.69949L90.2763 3.87928C90.2297 3.92813 90.171 3.97743 90.1002 4.02718L89.9274 4.26328L89.7278 4.27077C89.6069 4.2753 89.5166 4.29046 89.457 4.31624C89.397 4.33027 89.3253 4.35651 89.242 4.39496C89.1945 4.42029 89.1409 4.44585 89.0814 4.47163C89.0213 4.48566 88.9555 4.50579 88.8838 4.53203C88.7503 4.52526 88.6473 4.52323 88.5747 4.52595L88.3208 4.53548C87.9579 4.54908 87.5658 4.58733 87.1443 4.65024C86.7227 4.71314 86.3135 4.78147 85.9166 4.85523C85.6277 4.90139 85.3509 4.94709 85.0861 4.99234C84.821 5.02584 84.58 5.05842 84.3632 5.0901C84.2537 5.40037 84.155 5.6749 84.067 5.91371C83.9791 6.15252 83.8851 6.39155 83.7851 6.63081C83.6851 6.87007 83.5913 7.11498 83.5038 7.36554C83.4159 7.60435 83.3351 7.87232 83.2615 8.16947C83.1243 8.38657 83.011 8.59689 82.9218 8.80042C82.8321 8.99219 82.7616 9.21267 82.7104 9.46188C82.5365 9.66858 82.4116 9.89111 82.3358 10.1295C82.272 10.3674 82.213 10.5698 82.1587 10.7366L82.0961 11.0039C82.0145 11.0894 81.9625 11.1561 81.9401 11.2041C81.9298 11.2516 81.9015 11.3056 81.8553 11.3662C81.8248 11.5205 81.7819 11.6693 81.7268 11.8126C81.7048 11.8723 81.683 11.9379 81.6615 12.0094C81.6395 12.0691 81.6352 12.1163 81.6486 12.1512C81.6293 12.2814 81.5967 12.3827 81.551 12.4551C81.5536 12.5256 81.5503 12.5964 81.5408 12.6674L81.5125 12.8805C81.4914 12.9637 81.4761 13.0408 81.4666 13.1118C81.4567 13.171 81.465 13.2296 81.4914 13.2875L81.6055 13.4245C81.6436 13.4702 81.676 13.5279 81.7028 13.5975C81.7279 13.6201 81.7588 13.6366 81.7955 13.647C81.8322 13.6574 81.8631 13.6739 81.8882 13.6965C81.9881 13.7752 82.0805 13.8189 82.1656 13.8274L82.355 14.0323C82.4434 14.4529 82.3892 14.7846 82.1924 15.0275C81.9849 15.3061 81.6271 15.455 81.1192 15.474L80.8646 15.4659C80.7768 15.3868 80.7265 15.3357 80.7135 15.3126C80.6029 15.2696 80.5106 15.2319 80.4368 15.1993C80.3633 15.1785 80.2948 15.1281 80.2313 15.0481C80.2062 15.0255 80.1755 15.0148 80.1392 15.0162C80.1025 15.0058 80.0716 14.9893 80.0465 14.9667C79.9243 14.9359 79.826 14.8984 79.7517 14.8541L79.5481 14.7557C79.5558 14.6377 79.5588 14.5552 79.557 14.5081C79.4554 14.3824 79.3715 14.2442 79.3053 14.0936C79.2512 13.9426 79.2029 13.7854 79.1605 13.6222C79.1194 13.4942 79.0787 13.378 79.0384 13.2735C79.0103 13.1686 78.9644 13.0761 78.9009 12.996C78.8458 12.1738 78.8986 11.483 79.0593 10.9235C79.2196 10.3523 79.3986 9.798 79.5965 9.26069C79.7068 8.97394 79.8109 8.68154 79.9087 8.38348C80.0066 8.08543 80.0921 7.78195 80.1653 7.47304L80.3575 7.27154C80.4395 7.19781 80.4924 7.15462 80.5162 7.14195C80.5104 6.98909 80.5352 6.84097 80.5903 6.69759C80.6451 6.54246 80.7059 6.3871 80.7727 6.23151C80.8175 6.13563 80.8563 6.03997 80.8891 5.94454C80.9339 5.84865 80.9611 5.76521 80.9705 5.6942C80.8859 5.69737 80.8075 5.7062 80.7354 5.72068C80.6749 5.72295 80.6086 5.73132 80.5365 5.7458C80.3806 5.78697 80.2301 5.81028 80.085 5.81572C79.9761 5.8198 79.8973 5.81687 79.8485 5.80692C79.7535 5.85758 79.6639 5.89038 79.5797 5.90531L78.8903 5.93116C78.7452 5.9366 78.631 5.95855 78.5476 5.997L77.8795 6.02205Z" fill="#F4F4F4"/>
<path d="M50.1334 7.87478C50.1253 7.98107 50.1064 8.12308 50.0767 8.30082C50.1541 8.42745 50.2371 8.54209 50.3257 8.64475C50.426 8.73519 50.5207 8.83762 50.6098 8.95204C50.7419 8.92353 50.8272 8.938 50.8657 8.99543C50.9038 9.04111 50.9362 9.09877 50.963 9.16841C51.3929 9.32893 51.8329 9.43608 52.283 9.48985C52.7453 9.54318 53.2308 9.57207 53.7396 9.57655C53.9469 9.61588 54.1241 9.65634 54.271 9.69793C54.4179 9.73953 54.5621 9.71057 54.7037 9.61106C54.9504 9.73134 55.2511 9.83782 55.6058 9.9305C55.9605 10.0232 56.2979 10.1401 56.6181 10.2811C56.6423 10.2802 56.6667 10.2852 56.6913 10.2961L56.8015 10.3273C56.8033 10.3743 56.8167 10.4091 56.8417 10.4317L56.917 10.4996C56.9416 10.5104 56.9604 10.5274 56.9734 10.5504C56.9863 10.5735 56.9877 10.6088 56.9773 10.6563C56.9459 10.787 56.8957 10.9007 56.8266 10.9975C56.7571 11.0825 56.6816 11.1678 56.6001 11.2533C56.518 11.327 56.4363 11.4066 56.3547 11.4921C56.2852 11.5771 56.2345 11.6791 56.2027 11.7981C55.8702 11.9754 55.5263 12.1708 55.171 12.3843C54.8273 12.5856 54.459 12.776 54.0661 12.9556C53.6853 13.1348 53.2729 13.2798 52.8289 13.3906C52.3971 13.501 51.9324 13.542 51.4348 13.5135C51.269 13.6139 51.1706 13.7354 51.1396 13.8779C51.1082 14.0086 51.1014 14.1501 51.1192 14.3025L51.1727 14.7598C51.2021 14.9 51.1886 15.0241 51.1321 15.1322C51.1213 15.168 51.1285 15.1971 51.1536 15.2197C51.1907 15.2419 51.2218 15.2643 51.2469 15.2869C51.2836 15.2973 51.3024 15.3142 51.3033 15.3378C51.3159 15.3491 51.2986 15.3733 51.2515 15.4104L51.2179 15.4823C51.2067 15.5062 51.202 15.5417 51.2037 15.5888C51.2642 15.5865 51.2897 15.6209 51.2803 15.6919C51.2825 15.7507 51.314 15.7848 51.3749 15.7943C51.4282 15.9219 51.4928 16.0313 51.5689 16.1226C51.6571 16.2135 51.7513 16.3042 51.8516 16.3947C52.0079 16.3652 52.1649 16.3535 52.3226 16.3593C52.4923 16.3648 52.6558 16.3645 52.8131 16.3586C52.9828 16.364 53.1338 16.3525 53.2659 16.324C53.4102 16.295 53.5349 16.2315 53.6403 16.1333C53.6071 16.217 53.6205 16.2518 53.6805 16.2378C53.7526 16.2233 53.8131 16.221 53.8619 16.231C54.3883 16.0582 54.9194 15.8498 55.4553 15.606C55.9907 15.3504 56.4945 15.0607 56.9668 14.7368C57.4508 14.4008 57.8785 14.0197 58.2501 13.5936C58.6217 13.1675 58.9005 12.692 59.0867 12.1669C59.1975 11.8919 59.2356 11.6137 59.2008 11.3324C59.1781 11.0507 59.1481 10.7338 59.1107 10.382C59.0055 10.1622 58.8587 9.96162 58.6703 9.78028C58.4935 9.58673 58.3776 9.40267 58.3226 9.2281C58.2469 9.14851 58.1793 9.1216 58.1197 9.14739C58.0722 9.17272 58.0221 9.1275 57.9693 9.01172C57.9766 8.88192 57.9531 8.74149 57.899 8.59044C57.8445 8.42763 57.7601 8.27771 57.646 8.14068C57.5319 8.00366 57.3944 7.89106 57.2337 7.80288C57.0725 7.70294 56.8828 7.65118 56.6647 7.64758C56.6231 7.50783 56.5408 7.41083 56.4176 7.35657C56.294 7.29055 56.153 7.24285 55.9944 7.21347L55.5551 7.12396C55.4082 7.08236 55.2905 7.01024 55.2018 6.90758C55.2234 6.83612 55.2156 6.78931 55.1784 6.76715C55.1412 6.745 55.1276 6.70429 55.1375 6.64505C55.3785 6.61246 55.6072 6.57445 55.8235 6.53101C56.0395 6.47581 56.2117 6.38693 56.3403 6.26435C56.5105 6.28152 56.6915 6.26296 56.8832 6.20867C57.0745 6.14262 57.2661 6.08245 57.4578 6.02816C57.6612 5.96166 57.8536 5.92501 58.035 5.9182C58.216 5.89964 58.3756 5.95842 58.5139 6.09454C58.9475 6.03119 59.4358 5.97167 59.9787 5.91599C60.5216 5.86031 61.0676 5.88694 61.6167 5.99588C61.7708 5.90768 61.9187 5.81382 62.0603 5.7143C62.2019 5.61479 62.3374 5.51551 62.4669 5.41645C62.5181 5.16724 62.4927 4.9739 62.3907 4.83642C62.3003 4.68673 62.1801 4.54993 62.0301 4.42602C62.0132 4.29713 61.9662 4.17525 61.8892 4.06038C61.8123 3.94551 61.7232 3.83109 61.6221 3.71713L61.3535 3.33861C61.264 3.21244 61.1924 3.0797 61.1388 2.94041C60.3322 2.74691 59.567 2.68729 58.8431 2.76153C58.1188 2.82401 57.4153 2.95636 56.7326 3.15859C56.0498 3.36082 55.3801 3.58611 54.7233 3.83447C54.0786 4.08237 53.4319 4.27736 52.7833 4.41943C52.7613 4.47914 52.7745 4.50808 52.8229 4.50627C52.8712 4.50445 52.8963 4.52706 52.8981 4.5741C52.6467 4.65417 52.3779 4.75257 52.0916 4.86928C51.8049 4.97423 51.5314 5.10813 51.2711 5.27097C51.0103 5.42205 50.769 5.60773 50.5471 5.82801C50.3374 6.04783 50.1838 6.31264 50.0864 6.62246C50.1177 6.80969 50.1171 6.95691 50.0848 7.0641C50.0646 7.17083 50.0338 7.31918 49.9925 7.50914C50.0941 7.63486 50.1411 7.75674 50.1334 7.87478Z" fill="#F4F4F4"/>
<path fill-rule="evenodd" clip-rule="evenodd" d="M36.9242 15.082L37.1535 14.8968L37.1577 14.5257C37.4332 13.7971 37.7158 13.0976 38.0055 12.4273C38.3074 11.7566 38.6206 11.0677 38.9454 10.3608L39.2468 9.67832C39.3593 9.45037 39.4656 9.21676 39.5656 8.9775C39.5518 8.93092 39.544 8.88411 39.5422 8.83708C39.54 8.77828 39.5497 8.71315 39.5712 8.64169C39.7317 8.40017 39.8568 8.18352 39.9465 7.99175C40.0483 7.79953 40.1438 7.60165 40.2331 7.39812C40.3331 7.15886 40.4392 6.91938 40.5513 6.67967C40.6755 6.4395 40.8302 6.20408 41.0153 5.97341L41.1357 5.79226L41.3359 5.80242C41.3834 5.77709 41.4311 5.75764 41.479 5.74406C41.5386 5.71828 41.6107 5.7038 41.6954 5.70062L42.0239 5.7413C42.4164 5.54995 42.7576 5.28399 43.0476 4.9434C43.3493 4.5906 43.6485 4.17313 43.9453 3.69099L44.1518 3.38297L44.4486 3.54848C44.5104 3.58149 44.6085 3.61313 44.7429 3.64342C44.8772 3.67371 45.0178 3.70966 45.1647 3.75125C45.4209 3.80052 45.6715 3.86178 45.9164 3.93503C46.161 3.99651 46.3522 4.08943 46.49 4.21379L46.5867 4.36914C46.6157 4.49758 46.6383 4.61449 46.6543 4.71987L46.7388 5.03464C46.7964 5.27976 46.848 5.52511 46.8936 5.77069C46.9387 6.00451 46.9728 6.26817 46.9959 6.56169C47.0652 6.7946 47.1286 7.03362 47.1863 7.27875C47.2556 7.51166 47.3188 7.74479 47.376 7.97816C47.4492 8.3169 47.5281 8.64366 47.6126 8.95843C47.6966 9.26144 47.8044 9.55178 47.9359 9.82946C48.0568 9.82493 48.1296 9.82809 48.1542 9.83894C48.2972 9.7747 48.4651 9.73308 48.6582 9.71407L48.8934 9.68759L48.9739 9.89653C48.9994 9.9309 49.0309 9.96504 49.0685 9.99896C49.1061 10.0329 49.1498 10.0666 49.1995 10.1C49.3934 10.1045 49.5341 10.1405 49.6214 10.2079C49.7203 10.263 49.8011 10.3189 49.8638 10.3754L49.9578 10.4602C49.995 10.4823 50.0259 10.4988 50.0505 10.5097L50.3817 10.6209L50.2128 10.9629C50.089 11.2148 49.8925 11.4635 49.6231 11.7092C49.3659 11.9543 49.0708 12.1597 48.7379 12.3252C48.7652 12.4066 48.7802 12.4826 48.7828 12.5532C48.7976 12.6233 48.8188 12.7049 48.8465 12.7981C48.9037 13.0314 48.9492 13.277 48.9831 13.5348C49.0287 13.7804 49.0383 14.0391 49.0122 14.3109C48.9027 14.6211 48.768 14.9029 48.6079 15.1562C48.4595 15.3973 48.2742 15.6221 48.0519 15.8306C47.8412 16.0269 47.5993 16.1949 47.326 16.3347C47.0522 16.4627 46.7644 16.5383 46.4625 16.5614C46.2918 16.5324 46.1633 16.4961 46.0769 16.4522C46.0026 16.4079 45.9343 16.3633 45.8721 16.3186C45.7727 16.2516 45.6923 16.2076 45.6309 16.1863L45.3911 16.0893L45.4538 15.822C45.4865 15.7266 45.4774 15.6445 45.4264 15.5758C45.3875 15.5066 45.2993 15.4157 45.1618 15.3031C45.1121 15.2696 45.0685 15.2359 45.0309 15.202C44.9928 15.1563 44.9487 15.1109 44.8986 15.0657L44.5206 14.6736L45.1133 14.4924C45.4726 14.3847 45.71 14.2581 45.8257 14.1124C45.9409 13.955 45.9793 13.6886 45.941 13.3132C45.6365 13.2658 45.3884 13.2692 45.1966 13.3235C45.0044 13.366 44.8125 13.4144 44.6207 13.4687C44.3452 13.5497 44.0755 13.6246 43.8117 13.6933C43.5474 13.7504 43.258 13.7848 42.9436 13.7965C42.738 13.8043 42.5196 13.7948 42.2885 13.7681L42.0883 13.758L42.0266 13.566C42.0257 13.5425 42.0067 13.5196 41.9695 13.4975C41.944 13.4631 41.9187 13.4346 41.8937 13.412C41.8306 13.3437 41.7545 13.2524 41.6654 13.1379C41.5763 13.0235 41.5527 12.8772 41.5945 12.699C41.5049 12.5728 41.4515 12.4394 41.4341 12.2988C41.3893 12.3947 41.3505 12.4903 41.3177 12.5858L41.2544 12.8354L41.1904 13.0674L40.9559 13.1115C40.9326 13.136 40.9098 13.1722 40.8873 13.2201C40.877 13.2676 40.8783 13.3029 40.8913 13.3259L40.9711 13.5172L40.7957 13.6828C40.7728 13.719 40.7437 13.7495 40.7083 13.7744C40.6729 13.7992 40.6435 13.8239 40.6202 13.8483C40.6009 13.9786 40.5692 14.1034 40.5253 14.2228C40.4934 14.3418 40.4555 14.4609 40.4115 14.5803C40.3581 14.7707 40.3045 14.9553 40.2506 15.1339C40.2088 15.3121 40.1913 15.4894 40.1979 15.6658L40.1339 15.8978C40.077 15.9942 40.001 16.0677 39.906 16.1183C39.8231 16.1685 39.74 16.2129 39.6567 16.2513C39.5375 16.3029 39.4546 16.3531 39.408 16.4019L39.3622 16.6333L39.0914 16.6788C38.9355 16.7199 38.8215 16.7478 38.7494 16.7622C38.6893 16.7763 38.617 16.7849 38.5323 16.788L38.2958 16.7792C38.1454 16.6436 38.0205 16.5423 37.9211 16.4753C37.8334 16.3962 37.7279 16.3295 37.6048 16.2753L37.4907 16.1382C37.4388 16.046 37.4054 15.9648 37.3907 15.8947C37.3755 15.8128 37.3543 15.7312 37.327 15.6498C37.2971 15.4978 37.2569 15.3934 37.2063 15.3364L36.9242 15.082ZM42.5392 10.2791C42.3787 10.5206 42.2247 10.7737 42.0772 11.0382C42.1614 11.0233 42.2398 11.0145 42.3123 11.0118C42.397 11.0086 42.4814 10.9995 42.5657 10.9846C42.9881 10.9452 43.38 10.9011 43.7415 10.8522C44.103 10.8033 44.4938 10.7298 44.914 10.6316C44.801 10.2002 44.6756 9.76329 44.5379 9.32098C44.4119 8.86647 44.2737 8.4124 44.1235 7.95879L44.0394 8.13858C43.749 8.4674 43.4715 8.81929 43.207 9.19425C42.9425 9.5692 42.7257 9.92471 42.5567 10.2608L42.5392 10.2791Z" fill="#F4F4F4"/>
<path fill-rule="evenodd" clip-rule="evenodd" d="M28.01 17.1649C27.4806 17.2554 26.9959 17.25 26.5561 17.1487C26.1164 17.0475 25.7165 16.8799 25.3565 16.6461C25.0086 16.4119 24.7013 16.129 24.4345 15.7975C24.1799 15.4656 23.9667 15.1086 23.7949 14.7264C23.6561 13.9309 23.6592 13.2066 23.8043 12.5535C23.9489 11.8886 24.1741 11.2738 24.4799 10.7089C24.7857 10.1439 25.1352 9.61272 25.5283 9.11519C25.9335 8.6172 26.3212 8.13754 26.6915 7.67619C26.7775 7.70829 26.844 7.7058 26.891 7.66871C26.9502 7.63116 26.9968 7.58231 27.0309 7.52216L27.1694 7.34034C27.2277 7.27927 27.2926 7.23562 27.3643 7.20939C27.4087 7.10174 27.4659 7.01128 27.5358 6.93801C27.6178 6.86428 27.7 6.79643 27.7825 6.73447C27.8766 6.66028 27.9586 6.58656 28.0285 6.51328C28.1105 6.43956 28.1798 6.34864 28.2363 6.24055C28.3564 6.21249 28.4576 6.16748 28.5401 6.10552C28.6346 6.04309 28.7168 5.97525 28.7868 5.90197C28.8688 5.82824 28.951 5.7604 29.0335 5.69843C29.1159 5.63646 29.2169 5.58557 29.3366 5.54576L29.328 5.31646C29.5896 5.1889 29.7783 5.05229 29.8939 4.90665C30.0096 4.76101 30.1479 4.57331 30.3088 4.34354C30.4414 4.32679 30.544 4.31706 30.6165 4.31434C30.7012 4.31117 30.8277 4.29465 30.9962 4.26478C31.0975 4.0608 31.1948 3.90996 31.288 3.81226C31.3812 3.71456 31.5164 3.60352 31.6934 3.47913C31.8783 3.5664 32.074 3.61794 32.2805 3.63375C32.4865 3.6378 32.6773 3.71896 32.8528 3.87724C32.8701 4.01789 32.9167 4.12802 32.9923 4.20761C33.0675 4.27544 33.1488 4.34305 33.2361 4.41043C33.3229 4.46605 33.41 4.52755 33.4973 4.59493C33.5846 4.66231 33.6428 4.76022 33.6718 4.88866C33.7323 4.88639 33.7681 4.87327 33.7793 4.8493C33.8026 4.82488 33.8448 4.81741 33.9057 4.8269C33.9334 4.92007 33.9604 4.99559 33.9868 5.05348C34.0132 5.11137 34.0394 5.16338 34.0653 5.2095C34.1034 5.25518 34.1356 5.30696 34.162 5.36485C34.2005 5.42228 34.2334 5.4917 34.2606 5.57311C34.2055 5.71648 34.1568 5.87139 34.1146 6.03783C34.0719 6.19251 33.9791 6.30196 33.8362 6.3662C33.8397 6.46027 33.878 6.51183 33.951 6.52086C34.0236 6.51814 34.0674 6.55771 34.0826 6.63957C34.0987 6.74495 34.0839 6.83382 34.0381 6.90619C34.3975 7.44616 34.7277 8.01667 35.0288 8.6177C35.3294 9.20698 35.6654 9.77138 36.0369 10.3109C36.0189 10.4764 36.0311 10.6408 36.0735 10.8041C36.1277 10.9551 36.1878 11.106 36.254 11.2566C36.3323 11.4067 36.4045 11.5571 36.4707 11.7077C36.5369 11.8583 36.585 12.0096 36.6149 12.1615C36.6466 12.3605 36.6548 12.5781 36.6394 12.8141C36.6236 13.0385 36.5834 13.2578 36.5187 13.4722C36.4541 13.6866 36.3648 13.8901 36.251 14.0828C36.1366 14.2637 36.0026 14.4041 35.8489 14.5041C35.6643 14.7465 35.4296 14.9496 35.1451 15.1134C34.8602 15.2654 34.6005 15.4459 34.3661 15.6548C34.2003 15.7552 34.0216 15.8326 33.8298 15.8869C33.6376 15.9294 33.4396 15.9781 33.2358 16.0328C33.0821 16.1328 32.8982 16.2339 32.684 16.3361C32.4694 16.4266 32.2486 16.5114 32.0214 16.5906C31.7943 16.6697 31.5667 16.7371 31.3387 16.7928C31.1102 16.8367 30.9049 16.8503 30.7226 16.8335C30.2929 17.0027 29.8736 17.1244 29.4646 17.1986C29.0556 17.2729 28.5708 17.2616 28.01 17.1649ZM28.0052 10.7357C27.8944 11.0106 27.7585 11.263 27.5976 11.4928C27.4483 11.7103 27.2992 11.9338 27.1504 12.1631C27.0015 12.3924 26.8715 12.6387 26.7603 12.9019C26.6607 13.1529 26.6112 13.4492 26.6119 13.7906C26.8613 13.9815 27.1501 14.0943 27.4784 14.1291C27.8184 14.1516 28.1633 14.1446 28.5131 14.1079C28.8625 14.0595 29.2114 13.9993 29.56 13.9274C29.9085 13.8554 30.2218 13.8143 30.5 13.8038C30.496 13.698 30.5424 13.6433 30.6392 13.6396C31.1453 13.5736 31.6119 13.4207 32.0389 13.1809C32.4655 12.9294 32.9102 12.6772 33.373 12.4244C33.4282 12.281 33.5022 12.1546 33.595 12.0451C33.6877 11.9357 33.7364 11.7808 33.741 11.5804C33.6766 11.4768 33.631 11.3902 33.6041 11.3206C33.5894 11.2505 33.5794 11.1449 33.5741 11.0038C33.2438 10.5922 32.9545 10.1438 32.7062 9.65859C32.4574 9.16157 32.1735 8.69531 31.8544 8.25981C31.8324 8.31951 31.7863 8.38011 31.7159 8.44163C31.6455 8.50315 31.5665 8.49433 31.4788 8.41519C31.4469 8.53414 31.3955 8.6185 31.3247 8.66825C31.2535 8.70625 31.1695 8.72706 31.0728 8.73069C30.9881 8.73386 30.8967 8.71963 30.7987 8.68798C30.7127 8.65587 30.6323 8.61178 30.5575 8.55571C30.1466 8.90083 29.7352 9.23419 29.3234 9.55579C28.9237 9.87694 28.5622 10.2496 28.239 10.6739C28.1799 10.7114 28.144 10.7246 28.1315 10.7133C28.119 10.702 28.0769 10.7094 28.0052 10.7357Z" fill="#F4F4F4"/>
<path d="M27.439 27.5387C39.0183 26.7736 50.8161 25.994 56.7681 25.994C57.0872 25.994 58.922 25.6438 61.5351 25.145C69.1765 23.6865 83.4737 20.9575 85.987 22.0009C89.3263 23.3873 110.614 25.8835 115.206 24.8964C118.636 24.1591 129.6 18.0179 129.812 13.2452C130.054 12.9893 130.07 12.9184 129.815 13.1056C129.815 13.152 129.814 13.1986 129.812 13.2452C128.333 14.8087 118.388 23.2785 109.779 22.0009C105.918 21.4279 102.181 21.0593 98.8549 20.7313C93.5509 20.2082 89.2915 19.7881 87.2392 18.8065C80.8013 18.8065 74.9788 20.3765 71.4977 21.3152C70.0134 21.7154 68.9548 22.0009 68.4556 22.0009C64.8226 22.0009 62.9339 22.2979 60.6639 22.6549C59.5434 22.8311 58.33 23.0219 56.7681 23.1988C53.7476 23.541 47.0772 24.1103 39.331 24.7714C22.4566 26.2117 0.476808 28.0877 0 29C5.32584 29 16.2809 28.2761 27.439 27.5387Z" fill="#F4F4F4"/>
</svg>
